<svg width="1200" height="630" xmlns="http://www.w3.org/2000/svg">
  <defs>
    <linearGradient id="bg" x1="0%" y1="0%" x2="100%" y2="100%">
      <stop offset="0%" style="stop-color:#059669"/>
      <stop offset="100%" style="stop-color:#0891B2"/>
    </linearGradient>
  </defs>
  <rect width="1200" height="630" fill="url(#bg)"/>
  <circle cx="120" cy="520" r="140" fill="white" fill-opacity="0.05"/>
  <circle cx="1080" cy="100" r="100" fill="white" fill-opacity="0.04"/>
  <circle cx="600" cy="600" r="200" fill="white" fill-opacity="0.03"/>
  <!-- Chart bars icon -->
  <g transform="translate(440, 150)" fill="white">
    <rect x="0" y="120" width="40" height="60" rx="4" fill-opacity="0.2"/>
    <rect x="56" y="80" width="40" height="100" rx="4" fill-opacity="0.28"/>
    <rect x="112" y="50" width="40" height="130" rx="4" fill-opacity="0.35"/>
    <rect x="168" y="25" width="40" height="155" rx="4" fill-opacity="0.42"/>
    <rect x="224" y="0" width="40" height="180" rx="4" fill-opacity="0.5"/>
    <path d="M10 110 Q80 60 140 45 Q210 25 254 0" stroke="white" stroke-opacity="0.6" stroke-width="4" fill="none" stroke-linecap="round"/>
    <circle cx="254" cy="0" r="6" fill-opacity="0.7"/>
  </g>
  <text x="600" y="430" text-anchor="middle" fill="white" font-family="system-ui, -apple-system, sans-serif" font-size="48" font-weight="bold">Finance &amp; Tax</text>
  <text x="600" y="480" text-anchor="middle" fill="white" fill-opacity="0.7" font-family="system-ui, -apple-system, sans-serif" font-size="28">QuickFigure</text>
</svg>
