<svg width="1200" height="630" xmlns="http://www.w3.org/2000/svg">
  <defs>
    <linearGradient id="bg" x1="0%" y1="0%" x2="100%" y2="100%">
      <stop offset="0%" style="stop-color:#7C3AED"/>
      <stop offset="100%" style="stop-color:#C026D3"/>
    </linearGradient>
  </defs>
  <rect width="1200" height="630" fill="url(#bg)"/>
  <circle cx="180" cy="80" r="130" fill="white" fill-opacity="0.05"/>
  <circle cx="1020" cy="550" r="150" fill="white" fill-opacity="0.04"/>
  <circle cx="700" cy="50" r="80" fill="white" fill-opacity="0.03"/>
  <!-- Image/file icon -->
  <g transform="translate(470, 140)">
    <rect x="0" y="0" width="180" height="140" rx="14" fill="white" fill-opacity="0.15" stroke="white" stroke-opacity="0.2" stroke-width="2"/>
    <circle cx="55" cy="50" r="18" fill="white" fill-opacity="0.25"/>
    <path d="M0 105 L50 70 L90 95 L130 55 L180 90 L180 140 L0 140 Z" fill="white" fill-opacity="0.2"/>
    <!-- Small file tab -->
    <rect x="200" y="20" width="60" height="80" rx="8" fill="white" fill-opacity="0.12"/>
    <path d="M230 20 L260 20 L260 45 L230 45 Z" fill="white" fill-opacity="0.2"/>
    <line x1="212" y1="60" x2="248" y2="60" stroke="white" stroke-opacity="0.3" stroke-width="4" stroke-linecap="round"/>
    <line x1="212" y1="74" x2="240" y2="74" stroke="white" stroke-opacity="0.2" stroke-width="4" stroke-linecap="round"/>
    <line x1="212" y1="88" x2="244" y2="88" stroke="white" stroke-opacity="0.3" stroke-width="4" stroke-linecap="round"/>
  </g>
  <text x="600" y="430" text-anchor="middle" fill="white" font-family="system-ui, -apple-system, sans-serif" font-size="48" font-weight="bold">Image &amp; File</text>
  <text x="600" y="480" text-anchor="middle" fill="white" fill-opacity="0.7" font-family="system-ui, -apple-system, sans-serif" font-size="28">QuickFigure</text>
</svg>
