<svg width="1200" height="630" xmlns="http://www.w3.org/2000/svg">
  <defs>
    <linearGradient id="bg" x1="0%" y1="0%" x2="100%" y2="100%">
      <stop offset="0%" style="stop-color:#F43F5E"/>
      <stop offset="100%" style="stop-color:#EC4899"/>
    </linearGradient>
  </defs>
  <rect width="1200" height="630" fill="url(#bg)"/>
  <circle cx="100" cy="530" r="160" fill="white" fill-opacity="0.05"/>
  <circle cx="1100" cy="80" r="120" fill="white" fill-opacity="0.04"/>
  <circle cx="500" cy="30" r="70" fill="white" fill-opacity="0.03"/>
  <!-- Heart + star icon -->
  <g transform="translate(480, 130)">
    <path d="M120 180 C50 130 10 90 10 60 C10 30 30 10 55 10 C75 10 90 22 100 38 L120 60 L140 38 C150 22 165 10 185 10 C210 10 230 30 230 60 C230 90 190 130 120 180Z" fill="white" fill-opacity="0.18" stroke="white" stroke-opacity="0.3" stroke-width="3"/>
    <circle cx="120" cy="95" r="30" stroke="white" stroke-opacity="0.3" stroke-width="3" fill="none"/>
    <circle cx="120" cy="88" r="10" fill="white" fill-opacity="0.2"/>
    <line x1="120" y1="102" x2="120" y2="125" stroke="white" stroke-opacity="0.2" stroke-width="3"/>
    <line x1="106" y1="112" x2="134" y2="112" stroke="white" stroke-opacity="0.2" stroke-width="3"/>
  </g>
  <text x="600" y="430" text-anchor="middle" fill="white" font-family="system-ui, -apple-system, sans-serif" font-size="48" font-weight="bold">Lifestyle</text>
  <text x="600" y="480" text-anchor="middle" fill="white" fill-opacity="0.7" font-family="system-ui, -apple-system, sans-serif" font-size="28">QuickFigure</text>
</svg>
